<mxfile host="app.diagrams.net" modified="2024-01-11T07:42:38.219Z" agent="Mozilla/5.0 (Windows NT 10.0; Win64; x64; rv:109.0) Gecko/20100101 Firefox/115.0" etag="JTOFKFvlezFqiQ56-Iyh" version="22.1.18" type="github">
  <diagram name="Seite-1" id="aCKH2W4P-CfowNv1sTad">
    <mxGraphModel dx="1434" dy="726" grid="1" gridSize="10" guides="1" tooltips="1" connect="1" arrows="1" fold="1" page="1" pageScale="1" pageWidth="827" pageHeight="1169" background="none" math="0" shadow="0">
      <root>
        <mxCell id="0" />
        <mxCell id="1" parent="0" />
        <mxCell id="B8OFetI8ySAOXpKpJwUe-23" value="" style="rounded=1;whiteSpace=wrap;html=1;fillColor=#dae8fc;strokeColor=#6c8ebf;" parent="1" vertex="1">
          <mxGeometry x="250" y="125" width="1000" height="60" as="geometry" />
        </mxCell>
        <mxCell id="B8OFetI8ySAOXpKpJwUe-1" value="CacheFileProvider" style="text;html=1;strokeColor=default;fillColor=none;align=center;verticalAlign=middle;whiteSpace=wrap;rounded=0;strokeWidth=1;" parent="1" vertex="1">
          <mxGeometry x="680" y="560" width="140" height="30" as="geometry" />
        </mxCell>
        <mxCell id="B8OFetI8ySAOXpKpJwUe-2" value="FeedbackManager" style="text;html=1;strokeColor=default;fillColor=none;align=center;verticalAlign=middle;whiteSpace=wrap;rounded=0;strokeWidth=1;" parent="1" vertex="1">
          <mxGeometry x="680" y="500" width="140" height="30" as="geometry" />
        </mxCell>
        <mxCell id="B8OFetI8ySAOXpKpJwUe-3" value="" style="endArrow=classic;html=1;rounded=0;exitX=0.5;exitY=1;exitDx=0;exitDy=0;entryX=0.5;entryY=0;entryDx=0;entryDy=0;" parent="1" source="B8OFetI8ySAOXpKpJwUe-2" target="B8OFetI8ySAOXpKpJwUe-1" edge="1">
          <mxGeometry width="50" height="50" relative="1" as="geometry">
            <mxPoint x="960" y="490" as="sourcePoint" />
            <mxPoint x="1100" y="440" as="targetPoint" />
          </mxGeometry>
        </mxCell>
        <mxCell id="B8OFetI8ySAOXpKpJwUe-4" value="Lumberjack" style="text;html=1;strokeColor=default;fillColor=none;align=center;verticalAlign=middle;whiteSpace=wrap;rounded=0;strokeWidth=1;" parent="1" vertex="1">
          <mxGeometry x="680" y="430" width="140" height="30" as="geometry" />
        </mxCell>
        <mxCell id="B8OFetI8ySAOXpKpJwUe-5" value="" style="endArrow=classic;html=1;rounded=0;exitX=0.5;exitY=1;exitDx=0;exitDy=0;entryX=0.5;entryY=0;entryDx=0;entryDy=0;" parent="1" source="B8OFetI8ySAOXpKpJwUe-4" target="B8OFetI8ySAOXpKpJwUe-2" edge="1">
          <mxGeometry width="50" height="50" relative="1" as="geometry">
            <mxPoint x="760" y="540" as="sourcePoint" />
            <mxPoint x="830" y="480" as="targetPoint" />
          </mxGeometry>
        </mxCell>
        <mxCell id="B8OFetI8ySAOXpKpJwUe-8" value="KotPreferences" style="text;html=1;strokeColor=default;fillColor=none;align=center;verticalAlign=middle;whiteSpace=wrap;rounded=0;strokeWidth=1;" parent="1" vertex="1">
          <mxGeometry x="870" y="320" width="140" height="30" as="geometry" />
        </mxCell>
        <mxCell id="B8OFetI8ySAOXpKpJwUe-9" value="&lt;div&gt;KotBilling&lt;/div&gt;" style="text;html=1;strokeColor=default;fillColor=none;align=center;verticalAlign=middle;whiteSpace=wrap;rounded=0;strokeWidth=1;" parent="1" vertex="1">
          <mxGeometry x="300" y="320" width="140" height="30" as="geometry" />
        </mxCell>
        <mxCell id="B8OFetI8ySAOXpKpJwUe-10" value="&lt;div&gt;ComposeDialogs&lt;/div&gt;" style="text;html=1;strokeColor=default;fillColor=none;align=center;verticalAlign=middle;whiteSpace=wrap;rounded=0;strokeWidth=1;" parent="1" vertex="1">
          <mxGeometry x="300" y="140" width="140" height="30" as="geometry" />
        </mxCell>
        <mxCell id="B8OFetI8ySAOXpKpJwUe-11" value="&lt;div&gt;ComposePreferences&lt;/div&gt;" style="text;html=1;strokeColor=default;fillColor=none;align=center;verticalAlign=middle;whiteSpace=wrap;rounded=0;strokeWidth=1;" parent="1" vertex="1">
          <mxGeometry x="490" y="140" width="140" height="30" as="geometry" />
        </mxCell>
        <mxCell id="B8OFetI8ySAOXpKpJwUe-12" value="&lt;div&gt;ComposeChangelog&lt;/div&gt;" style="text;html=1;strokeColor=default;fillColor=none;align=center;verticalAlign=middle;whiteSpace=wrap;rounded=0;strokeWidth=1;" parent="1" vertex="1">
          <mxGeometry x="680" y="140" width="140" height="30" as="geometry" />
        </mxCell>
        <mxCell id="B8OFetI8ySAOXpKpJwUe-13" value="&lt;div&gt;ComposeThemer&lt;/div&gt;" style="text;html=1;strokeColor=default;fillColor=none;align=center;verticalAlign=middle;whiteSpace=wrap;rounded=0;strokeWidth=1;" parent="1" vertex="1">
          <mxGeometry x="870" y="140" width="140" height="30" as="geometry" />
        </mxCell>
        <mxCell id="B8OFetI8ySAOXpKpJwUe-14" value="&lt;div&gt;ComposeDebugDrawer&lt;/div&gt;" style="text;html=1;strokeColor=default;fillColor=none;align=center;verticalAlign=middle;whiteSpace=wrap;rounded=0;strokeWidth=1;" parent="1" vertex="1">
          <mxGeometry x="1060" y="140" width="140" height="30" as="geometry" />
        </mxCell>
        <mxCell id="B8OFetI8ySAOXpKpJwUe-15" value="" style="endArrow=none;html=1;rounded=0;exitX=0.421;exitY=1;exitDx=0;exitDy=0;exitPerimeter=0;entryX=0.5;entryY=1;entryDx=0;entryDy=0;startArrow=classic;startFill=1;endFill=0;" parent="1" source="B8OFetI8ySAOXpKpJwUe-10" target="B8OFetI8ySAOXpKpJwUe-11" edge="1">
          <mxGeometry width="50" height="50" relative="1" as="geometry">
            <mxPoint x="680" y="300" as="sourcePoint" />
            <mxPoint x="730" y="250" as="targetPoint" />
            <Array as="points">
              <mxPoint x="360" y="200" />
              <mxPoint x="460" y="200" />
              <mxPoint x="560" y="200" />
            </Array>
          </mxGeometry>
        </mxCell>
        <mxCell id="B8OFetI8ySAOXpKpJwUe-17" value="" style="endArrow=classic;html=1;rounded=0;entryX=0.421;entryY=-0.033;entryDx=0;entryDy=0;entryPerimeter=0;exitX=0.595;exitY=1.003;exitDx=0;exitDy=0;exitPerimeter=0;" parent="1" source="B8OFetI8ySAOXpKpJwUe-11" target="B8OFetI8ySAOXpKpJwUe-8" edge="1">
          <mxGeometry width="50" height="50" relative="1" as="geometry">
            <mxPoint x="680" y="300" as="sourcePoint" />
            <mxPoint x="730" y="250" as="targetPoint" />
            <Array as="points">
              <mxPoint x="573" y="290" />
              <mxPoint x="929" y="290" />
            </Array>
          </mxGeometry>
        </mxCell>
        <mxCell id="B8OFetI8ySAOXpKpJwUe-18" value="" style="endArrow=classic;html=1;rounded=0;entryX=0.5;entryY=0;entryDx=0;entryDy=0;exitX=0.457;exitY=1;exitDx=0;exitDy=0;exitPerimeter=0;" parent="1" source="B8OFetI8ySAOXpKpJwUe-12" target="B8OFetI8ySAOXpKpJwUe-8" edge="1">
          <mxGeometry width="50" height="50" relative="1" as="geometry">
            <mxPoint x="680" y="300" as="sourcePoint" />
            <mxPoint x="730" y="250" as="targetPoint" />
            <Array as="points">
              <mxPoint x="744" y="280" />
              <mxPoint x="940" y="280" />
            </Array>
          </mxGeometry>
        </mxCell>
        <mxCell id="B8OFetI8ySAOXpKpJwUe-19" value="" style="endArrow=classic;html=1;rounded=0;entryX=0.6;entryY=-0.067;entryDx=0;entryDy=0;entryPerimeter=0;exitX=0.5;exitY=1;exitDx=0;exitDy=0;" parent="1" source="B8OFetI8ySAOXpKpJwUe-14" target="B8OFetI8ySAOXpKpJwUe-8" edge="1">
          <mxGeometry width="50" height="50" relative="1" as="geometry">
            <mxPoint x="680" y="300" as="sourcePoint" />
            <mxPoint x="730" y="250" as="targetPoint" />
            <Array as="points">
              <mxPoint x="1130" y="280" />
              <mxPoint x="954" y="280" />
            </Array>
          </mxGeometry>
        </mxCell>
        <mxCell id="B8OFetI8ySAOXpKpJwUe-20" value="" style="endArrow=classic;html=1;rounded=0;exitX=0.591;exitY=1.009;exitDx=0;exitDy=0;exitPerimeter=0;entryX=1;entryY=0.5;entryDx=0;entryDy=0;" parent="1" source="B8OFetI8ySAOXpKpJwUe-14" target="B8OFetI8ySAOXpKpJwUe-4" edge="1">
          <mxGeometry width="50" height="50" relative="1" as="geometry">
            <mxPoint x="1216" y="240" as="sourcePoint" />
            <mxPoint x="1266" y="190" as="targetPoint" />
            <Array as="points">
              <mxPoint x="1143" y="445" />
            </Array>
          </mxGeometry>
        </mxCell>
        <mxCell id="B8OFetI8ySAOXpKpJwUe-21" value="" style="endArrow=classic;html=1;rounded=0;entryX=0.25;entryY=0;entryDx=0;entryDy=0;exitX=0.25;exitY=1;exitDx=0;exitDy=0;" parent="1" source="B8OFetI8ySAOXpKpJwUe-10" target="B8OFetI8ySAOXpKpJwUe-9" edge="1">
          <mxGeometry width="50" height="50" relative="1" as="geometry">
            <mxPoint x="340" y="180" as="sourcePoint" />
            <mxPoint x="490" y="400" as="targetPoint" />
          </mxGeometry>
        </mxCell>
      </root>
    </mxGraphModel>
  </diagram>
</mxfile>
